<svg xmlns="http://www.w3.org/2000/svg" viewBox="0 0 847.83 351.81"><defs><style>.cls-1{fill:#384970;}.cls-10,.cls-2,.cls-3,.cls-4,.cls-6,.cls-9{fill:none;stroke-miterlimit:10;}.cls-2,.cls-3,.cls-4{stroke:#38486f;stroke-linecap:round;stroke-width:16px;}.cls-2{stroke-dasharray:243.1 24.31;}.cls-3{stroke-dasharray:171.13 25.67;}.cls-5{fill:#38486f;}.cls-6{stroke:#f6a118;}.cls-10,.cls-6,.cls-9{stroke-width:3px;}.cls-7{fill:#fddd02;}.cls-8{fill:#f6a118;}.cls-9{stroke:#3084c6;}.cls-10{stroke:#922e87;}.cls-11{fill:#3084c6;}.cls-12{fill:#922e87;}</style></defs><title>logoMoowgly</title><g id="Calque_3" data-name="Calque 3"><path class="cls-1" d="M119.5,357a8.5,8.5,0,0,0-8.5,8.5v72a8.5,8.5,0,0,0,8.5,8.5h0a8.5,8.5,0,0,0,8.5-8.5v-72a8.5,8.5,0,0,0-8.5-8.5Z" transform="translate(-111 -94.77)"/><path class="cls-1" d="M119.5,232.67c-4.69,0-8.5,5-8.5,11.11v95.11c0,6.14,3.81,10.11,8.5,10.11h0c4.69,0,8.5-4,8.5-10.11V243.78c0-6.14-3.81-11.11-8.5-11.11Z" transform="translate(-111 -94.77)"/><path class="cls-1" d="M218.73,210.71c-4.69-1.89-10.61,1.84-13.23,8.33L165.27,318.6c-2.62,6.49-1,13.29,3.74,15.18h0c4.69,1.89,10.61-1.83,13.23-8.33l40.23-99.57c2.62-6.49,1-13.29-3.74-15.18Z" transform="translate(-111 -94.77)"/><path class="cls-1" d="M115.08,234.26c-4,2.46-4.64,8.69-1.43,13.92l49.22,80.21c3.21,5.23,9.05,7.48,13.06,5h0c4-2.46,4.64-8.69,1.43-13.92l-49.22-80.21c-3.21-5.23-9.05-7.48-13.06-5Z" transform="translate(-111 -94.77)"/><ellipse class="cls-2" cx="172" cy="226.73" rx="46" ry="116.5"/><ellipse class="cls-3" cx="292.33" cy="216.23" rx="53.33" ry="127"/><path class="cls-1" d="M469.05,363.15a8.5,8.5,0,0,0-4.76,11l26.61,66.9a8.5,8.5,0,0,0,11,4.76h0a8.5,8.5,0,0,0,4.76-11l-26.61-66.9a8.5,8.5,0,0,0-11-4.76Z" transform="translate(-111 -94.77)"/><path class="cls-1" d="M528.48,324.4c-4.54-1.19-9.59,1.06-11.28,7.48l-25.86,102.6c-1.69,6.43.63,10.61,5.17,11.8h0c4.54,1.19,9.59-1.05,11.27-7.48l25.86-102.6c1.69-6.43-.63-10.61-5.17-11.8Z" transform="translate(-111 -94.77)"/><path class="cls-1" d="M523.52,323.9c4.54-1.19,9.59,1.06,11.28,7.48L560.65,434c1.69,6.43-.63,10.61-5.17,11.8h0c-4.54,1.19-9.59-1.05-11.27-7.48l-25.86-102.6c-1.69-6.43.63-10.61,5.17-11.8Z" transform="translate(-111 -94.77)"/><path class="cls-1" d="M561.25,440a8.11,8.11,0,0,1-9.79,5.93h0a8.1,8.1,0,0,1-6.51-9.42l56-261.71a8.11,8.11,0,0,1,9.79-5.93h0a8.1,8.1,0,0,1,6.51,9.42Z" transform="translate(-111 -94.77)"/><path class="cls-1" d="M860.31,396.19c-4.13-2.23-9.38.16-10.77,2.74l-19.8,35.38c-1.39,2.58.06,8.58,4.19,10.81h0c4.13,2.23,9.38-.16,10.77-2.74L864.5,407c1.39-2.58-.06-8.58-4.19-10.81Z" transform="translate(-111 -94.77)"/><path class="cls-1" d="M851.51,252.93c-3.41,3.23-3.77,8.38-.81,11.51l45.45,48c3,3.13,8.13,3.06,11.54-.17h0c3.41-3.23,3.77-8.38.81-11.51l-45.45-48c-3-3.13-8.13-3.06-11.54.17Z" transform="translate(-111 -94.77)"/><path class="cls-1" d="M879.21,383.43a8.44,8.44,0,0,1-11.52,3.09h0A8.44,8.44,0,0,1,864,375.18L940.35,234a8.44,8.44,0,0,1,11.52-3.09h0a8.45,8.45,0,0,1,3.72,11.34Z" transform="translate(-111 -94.77)"/><path class="cls-4" d="M607.95,320s-7.45-116.23,62.78-129c0,0,43.4-6,56.17,50.67" transform="translate(-111 -94.77)"/><path class="cls-4" d="M610.65,357.67s26.6,117.83,93.71,68" transform="translate(-111 -94.77)"/><path class="cls-5" d="M690.7,366.92c-3.61,0-6.53-3.81-6.53-8.5h0c0-4.69,2.92-8.5,6.53-8.5h46.86c3.61,0,6.53,3.81,6.53,8.5h0c0,4.69-2.92,8.5-6.53,8.5Z" transform="translate(-111 -94.77)"/><path class="cls-4" d="M738.6,357.67c-.35,1.66-26.8,115.92-93.71,68" transform="translate(-111 -94.77)"/><path class="cls-1" d="M769.67,236.33a9,9,0,0,1-9,9h0a9,9,0,0,1-9-9v-28a9,9,0,0,1,9-9h0a9,9,0,0,1,9,9Z" transform="translate(-111 -94.77)"/><path class="cls-1" d="M769.33,437.17A8.83,8.83,0,0,1,760.5,446h0a8.83,8.83,0,0,1-8.83-8.83V263.5a8.83,8.83,0,0,1,8.83-8.83h0a8.83,8.83,0,0,1,8.83,8.83Z" transform="translate(-111 -94.77)"/><path class="cls-1" d="M824,437.33a8.43,8.43,0,0,1-8.17,8.67h-56a8.43,8.43,0,0,1-8.17-8.67h0a8.43,8.43,0,0,1,8.17-8.67h56a8.43,8.43,0,0,1,8.17,8.67Z" transform="translate(-111 -94.77)"/><rect class="cls-1" x="96.21" y="187.57" width="16.75" height="163.67" rx="8.37" ry="8.37"/><rect class="cls-1" x="96.21" y="115.41" width="17.25" height="64.23" rx="8.62" ry="8.62"/></g><g id="Calque_5" data-name="Calque 5"><circle class="cls-6" cx="35.25" cy="110.75" r="6.25"/><circle class="cls-7" cx="459.25" cy="107.75" r="6.25"/><circle class="cls-8" cx="619.25" cy="67.75" r="6.25"/><circle class="cls-8" cx="309.25" cy="7.75" r="6.25"/><circle class="cls-9" cx="799.25" cy="107.75" r="6.25"/><circle class="cls-10" cx="479.25" cy="41.75" r="6.25"/><circle class="cls-11" cx="219.25" cy="77.75" r="6.25"/><path class="cls-12" d="M258.67,134.6a1.5,1.5,0,0,1-1.5,1.5h0a1.5,1.5,0,0,1-1.5-1.5V120.27a1.5,1.5,0,0,1,1.5-1.5h0a1.5,1.5,0,0,1,1.5,1.5Z" transform="translate(-111 -94.77)"/><path class="cls-12" d="M250,128.93a1.5,1.5,0,0,1-1.5-1.5h0a1.5,1.5,0,0,1,1.5-1.5h14.33a1.5,1.5,0,0,1,1.5,1.5h0a1.5,1.5,0,0,1-1.5,1.5Z" transform="translate(-111 -94.77)"/><path class="cls-7" d="M741.67,110.6a1.5,1.5,0,0,1-1.5,1.5h0a1.5,1.5,0,0,1-1.5-1.5V96.27a1.5,1.5,0,0,1,1.5-1.5h0a1.5,1.5,0,0,1,1.5,1.5Z" transform="translate(-111 -94.77)"/><path class="cls-7" d="M733,104.93a1.5,1.5,0,0,1-1.5-1.5h0a1.5,1.5,0,0,1,1.5-1.5h14.33a1.5,1.5,0,0,1,1.5,1.5h0a1.5,1.5,0,0,1-1.5,1.5Z" transform="translate(-111 -94.77)"/><path class="cls-11" d="M471.67,220.6a1.5,1.5,0,0,1-1.5,1.5h0a1.5,1.5,0,0,1-1.5-1.5V206.27a1.5,1.5,0,0,1,1.5-1.5h0a1.5,1.5,0,0,1,1.5,1.5Z" transform="translate(-111 -94.77)"/><path class="cls-11" d="M463,214.93a1.5,1.5,0,0,1-1.5-1.5h0a1.5,1.5,0,0,1,1.5-1.5h14.33a1.5,1.5,0,0,1,1.5,1.5h0a1.5,1.5,0,0,1-1.5,1.5Z" transform="translate(-111 -94.77)"/><path class="cls-8" d="M951.67,150.6a1.5,1.5,0,0,1-1.5,1.5h0a1.5,1.5,0,0,1-1.5-1.5V136.27a1.5,1.5,0,0,1,1.5-1.5h0a1.5,1.5,0,0,1,1.5,1.5Z" transform="translate(-111 -94.77)"/><path class="cls-8" d="M943,144.93a1.5,1.5,0,0,1-1.5-1.5h0a1.5,1.5,0,0,1,1.5-1.5h14.33a1.5,1.5,0,0,1,1.5,1.5h0a1.5,1.5,0,0,1-1.5,1.5Z" transform="translate(-111 -94.77)"/><path class="cls-12" d="M791.16,229.56a1.5,1.5,0,0,1-2.12,0h0a1.5,1.5,0,0,1,0-2.12l10.13-10.14a1.5,1.5,0,0,1,2.12,0h0a1.5,1.5,0,0,1,0,2.12Z" transform="translate(-111 -94.77)"/><path class="cls-12" d="M789,219.43a1.5,1.5,0,0,1,0-2.12h0a1.5,1.5,0,0,1,2.12,0l10.13,10.14a1.5,1.5,0,0,1,0,2.12h0a1.5,1.5,0,0,1-2.12,0Z" transform="translate(-111 -94.77)"/><path class="cls-7" d="M117.16,139.56a1.5,1.5,0,0,1-2.12,0h0a1.5,1.5,0,0,1,0-2.12l10.14-10.14a1.5,1.5,0,0,1,2.12,0h0a1.5,1.5,0,0,1,0,2.12Z" transform="translate(-111 -94.77)"/><path class="cls-7" d="M115,129.43a1.5,1.5,0,0,1,0-2.12h0a1.5,1.5,0,0,1,2.12,0l10.14,10.14a1.5,1.5,0,0,1,0,2.12h0a1.5,1.5,0,0,1-2.12,0Z" transform="translate(-111 -94.77)"/></g></svg>