<?xml version="1.0" encoding="utf-8"?>
<!-- Generator: Adobe Illustrator 15.1.0, SVG Export Plug-In . SVG Version: 6.00 Build 0)  -->
<!DOCTYPE svg PUBLIC "-//W3C//DTD SVG 1.1//EN" "http://www.w3.org/Graphics/SVG/1.1/DTD/svg11.dtd">
<svg version="1.1" id="Ebene_1" xmlns="http://www.w3.org/2000/svg" xmlns:xlink="http://www.w3.org/1999/xlink" x="0px" y="0px"
	 width="1190.551px" height="841.89px" viewBox="0 0 1190.551 841.89" enable-background="new 0 0 1190.551 841.89"
	 xml:space="preserve">
<g>
	<path fill-rule="evenodd" clip-rule="evenodd" d="M506.75,232.092c-52.747-15.067-80.377,25.149-97.828,58.426
		C412.969,249.856,459.08,199.716,506.75,232.092z"/>
	<path fill-rule="evenodd" clip-rule="evenodd" fill="#FFFFFF" d="M936.103,537.804c21.423-14.357,42.487-29.071,42.12-65.218
		c24.477-7.395,54.003-20.005,54.35-51.632c0.261-23.745-16.465-47.018-50.272-43.478c-0.896,5.877,9.52,0.443,10.869,4.076
		c-2.555,40.223-65.523,46.535-85.598,17.664c0.165-26.542,0.25-46.426-4.076-69.295c-2.034-10.754-7.924-22.283-6.793-29.891
		c3.129-21.088,54.934-35.83,73.369-13.587c9.656,11.648,10.478,35.824-1.357,50.271c-8.112,1.77-7.922-4.761-14.946-4.075
		c11.269,17.042,54.957,15.653,62.5-4.076c-6.382-1.401-3.619,6.344-9.51,5.435c-28.55-11.246-22.06-49.318-8.153-65.218
		c19.767-22.596,61.072-15.73,78.806,5.435c23.955,28.592,24.488,100.33,14.945,145.383
		c-12.924,61.009-50.742,124.356-92.394,139.946C975.43,568.728,945.65,562.818,936.103,537.804z"/>
	<path fill-rule="evenodd" clip-rule="evenodd" fill="#FFFFFF" d="M893.982,448.129c9.897-4.296,19.611-18.703,38.044-19.021
		c22.569-0.392,41.083,15.937,43.48,32.609c9.541,66.349-96.79,85.019-131.796,39.403c19.244-35.556,16.788-103.764-28.533-108.698
		c5.254-13.608,21.065-14.727,28.533-25.815c7.496-11.132,11.448-36.94,5.436-51.631c-3.148-7.691-13.593-12.935-13.589-20.382
		c0.004-8.223,14.476-22.24,24.457-23.097c26.527-2.278,36.924,38.039,42.121,66.578
		C909.988,381.193,904.004,421.245,893.982,448.129z"/>
	<path fill-rule="evenodd" clip-rule="evenodd" fill="#FFFFFF" d="M597.783,476.661c-6.653,35.346-58.21,50.26-80.164,19.022
		c49.478-33.749,41.923-147.175,0-183.427c10.944-25.425,52.523-47.791,73.37-21.739c12.366,15.453,12.191,55.238,1.359,72.012
		c-4.272,6.615-13.087,6.298-16.306,16.304c14.534-13.601,38.898-22.683,51.632,0c0.837-9.952-9.56-10.132-13.587-19.021
		c-16.648-36.743,10.348-104.756,57.066-84.241c2.759,1.213,8.93,6.149,10.869,8.152c38.442,39.729,29.479,161.304-2.718,199.732
		c-6.346,7.574-21.558,20.381-32.609,21.739C621.634,508.275,606.13,493.636,597.783,476.661z"/>
	<path fill-rule="evenodd" clip-rule="evenodd" d="M364.084,297.312c-39.996-15.208-97.25-12.856-108.697,25.815
		C253.897,272.853,333.051,269.213,364.084,297.312z"/>
	<path fill-rule="evenodd" clip-rule="evenodd" fill="#FFFFFF" d="M768.981,370.682c-0.988-6.877,3.729-8.046,4.076-13.587
		c-17.095,14.76-9.678,59.812,5.435,70.653c4.419-5.395-5.502-8.033-4.075-14.947c10.298-12.304,16.799-17.815,32.608-17.662
		c62.209,0.6,54.835,110.473,13.587,125c-34.567,12.175-61.464-31.488-29.891-48.913c-12.011,2.935-17.063,12.83-19.022,25.815
		c-20.08,23.309-75.476,13.441-86.958-10.869c27.015-39.114,35.523-121.245,16.305-175.274
		c26.737-46.311,143.235-41.717,148.101,19.021C852.661,373.812,801.462,403.348,768.981,370.682z"/>
	<path fill-rule="evenodd" clip-rule="evenodd" fill="#FFFFFF" d="M407.563,422.313c-3.369,47.962-30.774,116.644-88.316,88.316
		c-52.54-25.863-77.474-154.075-12.229-186.144c13.532-6.652,31.82-6.962,47.555,1.359c24.764,13.097,35,39.093,47.555,69.295
		c4.276-50.427,27.67-112.897,84.241-91.035c32.998,12.753,55.708,63.634,55.708,105.98c0,42.285-20.727,84.895-58.424,86.958
		C437.467,499.57,422.313,455.25,407.563,422.313z M494.521,426.389c34.134-3.017,26.368-106.5-14.946-97.826
		C443.311,336.176,459.075,429.522,494.521,426.389z M345.062,437.26c33.413-5.172,21.229-106.572-17.662-96.47
		C293.309,349.645,306.921,443.163,345.062,437.26z"/>
	<path fill-rule="evenodd" clip-rule="evenodd" d="M479.575,328.562c41.314-8.674,49.08,94.809,14.946,97.826
		C459.075,429.522,443.311,336.176,479.575,328.562z"/>
	<path fill-rule="evenodd" clip-rule="evenodd" fill="#FFFFFF" d="M976.864,327.203c3.038,3.759,5.289,8.301,6.796,13.587
		c-3.171,0-6.342,0-9.514,0C973.247,334.454,976.288,332.062,976.864,327.203z"/>
	<path fill-rule="evenodd" clip-rule="evenodd" d="M327.399,340.79c38.892-10.102,51.075,91.298,17.662,96.47
		C306.921,443.163,293.309,349.645,327.399,340.79z"/>
	<path fill-rule="evenodd" clip-rule="evenodd" fill="#FFFFFF" d="M597.783,353.019c3.385-0.539,4.021,8.487,1.358,9.511
		C592.717,362.293,599.629,357.155,597.783,353.019z"/>
	<path fill-rule="evenodd" clip-rule="evenodd" fill="#FFFFFF" d="M767.623,388.345c6.588,3.376,13.406,6.523,24.457,5.435
		c-7.055,3.816-15.616,6.125-23.099,9.511C767.355,399.482,767.487,393.916,767.623,388.345z"/>
	<path fill-rule="evenodd" clip-rule="evenodd" fill="#FFFFFF" d="M991.812,397.856c18.568,3.859,33.502,23.166,31.249,40.762
		c-2.306,18.028-26.328,24.967-44.838,28.533c0.396-16.247-6.483-25.218-17.662-29.891
		C975.23,428.378,988.289,417.884,991.812,397.856z"/>
	<path fill-rule="evenodd" clip-rule="evenodd" fill="#FFFFFF" d="M904.853,426.389c2.587,0.584,3.415,2.928,6.795,2.719
		c-0.608,3.92-5.847,3.212-6.795,6.792C901.951,435.05,903.578,427.537,904.853,426.389z"/>
	<path fill-rule="evenodd" clip-rule="evenodd" fill="#FFFFFF" d="M18.97,179.103c382.71,0,765.404,0,1148.116,0
		c0,177.991,0,355.985,0,533.977c-383.15,0-766.335,0-1149.475,0 M408.922,290.518c17.45-33.276,45.081-73.493,97.828-58.426
		C459.08,199.716,412.969,249.856,408.922,290.518z M205.115,346.225c24.084-7.164,41.429,8.423,55.707,21.74
		c-0.059-1.871,0.64-2.984,1.359-4.077c-12.052-9.62-21.051-20.925-38.044-23.098c-34.123-4.363-51.012,20.517-58.426,47.555
		c-16.153-16.217-51.756-12.284-66.577,0c-15.075,12.496-21.586,38.288-23.098,59.784c-4.849,68.978,23.522,138.929,44.838,180.71
		c15.47,15.993,32.777,41.475,65.218,31.25c40.527-12.773,36.084-89.816,20.381-125.003c6.496,1.011,11.382-6.666,14.946-4.077
		c3.701,37.87,18.066,77.277,59.784,69.297c30.398-5.816,41.858-53.457,33.968-80.166c50.805,23.061,88.095-18.583,97.828-58.424
		c14.65,28.341,47.102,56.119,91.034,42.121c-3.723,1.953-1.57,3.423,0,6.792c21.869,31.506,73.344,18.277,86.958-12.228
		c13.907,22.007,59.145,31.411,76.088,6.793c17.149,20.941,69.915,28.292,93.75,8.153c7.83,13.645,21.006,25.233,39.404,24.457
		c16.122-0.681,23.806-12.605,33.968-20.38c17.011,19.427,50.437,28.991,88.317,23.098c3.107,63.618,80.492,47.226,107.339,20.381
		c33.465-33.465,64.223-103.272,70.651-160.329c7.811-69.311-5.815-149.459-66.578-149.459c-32.002,0-45.338,23.707-54.347,51.631
		c-3.704-40.562-72.575-35.176-85.601-6.793c-6.839-33.589-56.917-35.053-69.294-5.435c-32.403-23.327-103.854-23.009-131.795,4.075
		c-12.072-33.072-64.304-31.058-82.881-4.075c-4.734,6.875-5.802,11.785-9.511,20.381c1.77-53.31-95.512-33.978-89.676-2.718
		c-39.868-43.618-108.109-3.245-114.132,46.196c-17.099-22.646-31.404-44.389-63.859-46.196
		c-49.618-2.763-72.706,42.385-76.088,86.958c-3.004,39.58,9.528,79.185,29.891,103.262c4.829,5.71,20.755,14.148,23.098,20.381
		c5.1,13.565-6.707,42.165-16.305,51.631c-3.351,3.305-8.312,7.02-12.228,8.151c-47.37,13.7-60.987-48.838-50.273-84.24
		c-4.071,14.65-13.732,29.55-29.892,27.175c-9.938-1.46-10.233-10.494-19.021-14.946c5.704,13.376,16.472,19.835,23.098,33.969
		c14.982,31.96,15.04,83.368-14.946,95.11c-14.182,5.555-30.741,0.465-39.404-6.793c-37.84-31.706-65.067-128.274-59.782-188.863
		c2.394-27.465,11.54-46.907,28.533-55.708c22.522-11.665,42.103,3.309,54.348,17.664
		C177.042,376.22,183.617,352.62,205.115,346.225z M255.387,323.126c11.448-38.671,68.702-41.023,108.697-25.815
		C333.051,269.213,253.897,272.853,255.387,323.126z M351.855,547.316c-4.207,1.36-5.277-7.231-8.152-2.719
		c2.954,2.934,7.099,4.678,10.87,6.794c9.036,30.025,26.229,60.87,58.425,61.141c49.852,0.424,65.204-60.079,82.881-91.032
		c-1.747,2.329-2.81,5.344-6.793,5.435c-3.351-0.363-6.946-7.424-9.511-4.076c3.156,2.28,5.741,5.129,9.511,6.794
		c-21.395,22.179-40.454,72.037-80.164,67.936c-26.706-2.759-38.734-30.216-52.99-48.914c2.556-1.597,7.726-7.566,5.435-9.511
		C358.621,542.305,356.852,546.423,351.855,547.316z"/>
	<path fill-rule="evenodd" clip-rule="evenodd" d="M361.367,539.163c2.292,1.944-2.879,7.914-5.435,9.511
		c14.255,18.698,26.284,46.155,52.99,48.914c39.71,4.102,58.77-45.757,80.164-67.936c-3.771-1.665-6.355-4.514-9.511-6.794
		c2.565-3.348,6.16,3.713,9.511,4.076c3.983-0.091,5.047-3.105,6.793-5.435c-17.677,30.953-33.029,91.456-82.881,91.032
		c-32.196-0.271-49.389-31.115-58.425-61.141c-3.771-2.116-7.916-3.86-10.87-6.794c2.875-4.513,3.945,4.079,8.152,2.719
		C356.852,546.423,358.621,542.305,361.367,539.163z"/>
	<path fill-rule="evenodd" clip-rule="evenodd" d="M173.863,401.933c-12.245-14.354-31.826-29.328-54.348-17.664
		c-16.993,8.801-26.139,28.243-28.533,55.708c-5.285,60.589,21.942,157.157,59.782,188.863c8.663,7.258,25.222,12.348,39.404,6.793
		c29.985-11.742,29.928-63.15,14.946-95.11c-6.626-14.134-17.395-20.593-23.098-33.969c7.326,5.389,9.084,13.486,19.021,14.946
		c16.16,2.375,25.821-12.525,29.892-27.175c-10.714,35.402,2.903,97.94,50.273,84.24c3.915-1.132,8.876-4.847,12.228-8.151
		c9.598-9.466,26.467-41.298,16.305-51.631c-5.361-5.451-18.269-14.671-23.098-20.381c-20.363-24.077-32.895-63.682-29.891-103.262
		c3.382-44.574,26.586-91.331,76.088-86.958c30.52,2.696,46.76,23.55,63.859,46.196c6.798-50.934,65.764-90.575,116.6-45.658
		c9.5-34.5,88.978-51.13,87.208,2.18c3.709-8.131,5.336-13.708,9.511-20.381c17.376-27.771,70.81-28.997,82.881,4.075
		c27.942-27.084,99.392-27.402,131.795-4.075c12.377-29.618,62.455-28.154,69.294,5.435c13.025-28.382,81.896-33.769,85.601,6.793
		c9.009-27.924,22.345-51.631,54.347-51.631c60.763,0,74.389,80.148,66.578,149.459c-6.429,57.056-37.187,126.864-70.651,160.329
		c-26.847,26.845-104.231,43.237-107.339-20.381c-37.881,5.894-71.307-3.671-88.317-23.098
		c-10.162,7.774-17.846,19.699-33.968,20.38c-18.398,0.776-31.574-10.812-39.404-24.457c-23.836,20.14-76.601,12.788-93.75-8.153
		c-16.944,24.618-62.181,15.214-76.088-6.793c-20.133,39.979-92.042,6.912-88.318,4.959c-42.673,13.915-75.022-13.304-89.673-41.645
		c-9.732,39.841-47.022,81.484-97.828,58.424c7.891,26.709-3.57,74.35-33.968,80.166c-41.718,7.98-56.083-31.427-59.784-69.297
		c-3.564-2.589-8.45,5.088-14.946,4.077c15.704,35.187,20.973,115.23-20.381,125.003c-27.536,6.507-50.772-6.243-65.218-31.25
		c-23.596-35.244-49.688-111.732-44.838-180.71c1.512-21.496,8.023-47.288,23.098-59.784c14.821-12.284,50.424-16.217,66.577,0
		c7.414-27.039,24.303-51.918,58.426-47.555c16.993,2.173,25.992,13.478,38.044,23.098c-0.72,1.092-1.418,2.206-1.359,4.077
		c-14.277-13.317-31.623-28.904-55.707-21.74C183.617,352.62,177.042,376.22,173.863,401.933z M999.962,559.542
		c41.651-15.59,79.47-78.938,92.394-139.946c9.543-45.053,9.01-116.791-14.945-145.383c-17.733-21.165-59.039-28.03-78.806-5.435
		c-13.906,15.9-20.396,53.973,8.153,65.218c5.891,0.909,3.128-6.835,9.51-5.435c-7.543,19.729-51.231,21.118-62.5,4.076
		c7.024-0.686,6.834,5.845,14.946,4.075c11.835-14.448,11.014-38.623,1.357-50.271c-18.436-22.243-70.24-7.501-73.369,13.587
		c-1.131,7.608,4.759,19.137,6.793,29.891c4.326,22.869,4.241,42.752,4.076,69.295c20.074,28.872,83.043,22.56,85.598-17.664
		c-1.35-3.632-11.765,1.802-10.869-4.076c33.808-3.54,50.533,19.733,50.272,43.478c-0.347,31.626-29.873,44.237-54.35,51.632
		c0.367,36.147-20.697,50.861-42.12,65.218C945.65,562.818,975.43,568.728,999.962,559.542z M902.136,338.074
		c-5.197-28.539-15.594-68.856-42.121-66.578c-9.981,0.857-24.453,14.875-24.457,23.097c-0.004,7.447,10.44,12.69,13.589,20.382
		c6.013,14.691,2.061,40.5-5.436,51.631c-7.468,11.088-23.279,12.207-28.533,25.815c45.321,4.934,47.777,73.142,28.533,108.698
		c35.006,45.616,141.337,26.946,131.796-39.403c-2.397-16.672-20.911-33-43.48-32.609c-18.433,0.319-28.146,14.725-38.044,19.021
		C904.004,421.245,909.988,381.193,902.136,338.074z M646.696,505.194c11.051-1.357,26.263-14.165,32.609-21.739
		c32.197-38.428,41.16-160.003,2.718-199.732c-1.939-2.003-8.11-6.939-10.869-8.152c-46.719-20.515-73.715,47.499-57.066,84.241
		c4.028,8.889,14.424,9.069,13.587,19.021c-12.734-22.683-37.099-13.601-51.632,0c3.218-10.006,12.034-9.689,16.306-16.304
		c10.832-16.773,11.007-56.559-1.359-72.012c-20.847-26.052-62.426-3.686-73.37,21.739c41.923,36.251,49.478,149.678,0,183.427
		c21.954,31.238,73.511,16.324,80.164-19.022C606.13,493.636,621.634,508.275,646.696,505.194z M849.146,329.92
		c-4.865-60.738-121.363-65.333-148.101-19.021c19.219,54.03,10.71,136.16-16.305,175.274
		c11.482,24.311,66.878,34.178,86.958,10.869c1.959-12.985,7.012-22.88,19.022-25.815c-31.573,17.424-4.677,61.087,29.891,48.913
		c41.248-14.527,48.622-124.4-13.587-125c-15.81-0.153-22.311,5.358-32.608,17.662c-1.427,6.914,8.494,9.552,4.075,14.947
		c-15.112-10.841-22.529-55.893-5.435-70.653c-0.348,5.541-5.064,6.71-4.076,13.587C801.462,403.348,852.661,373.812,849.146,329.92
		z M483.651,497.042c37.697-2.062,58.424-44.672,58.424-86.958c0-42.346-22.71-93.228-55.708-105.98
		c-56.57-21.862-79.965,40.608-84.241,91.035c-12.555-30.202-22.791-56.198-47.555-69.295c-15.734-8.321-34.023-8.011-47.555-1.359
		c-65.245,32.069-40.311,160.281,12.229,186.144c57.542,28.327,84.947-40.354,88.316-88.316
		C422.313,455.25,437.467,499.57,483.651,497.042z M974.146,340.79c3.172,0,6.343,0,9.514,0c-1.507-5.287-3.758-9.829-6.796-13.587
		C976.288,332.062,973.247,334.454,974.146,340.79z M599.142,362.53c2.663-1.024,2.027-10.05-1.358-9.511
		C599.629,357.155,592.717,362.293,599.142,362.53z M768.981,403.291c7.482-3.386,16.044-5.694,23.099-9.511
		c-11.051,1.089-17.869-2.059-24.457-5.435C767.487,393.916,767.355,399.482,768.981,403.291z M960.561,437.26
		c11.179,4.673,18.059,13.644,17.662,29.891c18.51-3.566,42.532-10.505,44.838-28.533c2.253-17.596-12.681-36.902-31.249-40.762
		C988.289,417.884,975.23,428.378,960.561,437.26z M904.853,435.9c0.948-3.58,6.187-2.872,6.795-6.792
		c-3.38,0.209-4.208-2.135-6.795-2.719C903.578,427.537,901.951,435.05,904.853,435.9z"/>
</g>
</svg>

